<?xml version="1.0" encoding="UTF-8" standalone="no"?>
<!DOCTYPE svg PUBLIC "-//W3C//DTD SVG 1.1//EN"
 "http://www.w3.org/Graphics/SVG/1.1/DTD/svg11.dtd">
<!-- Generated by graphviz version 2.38.0 (20140413.2041)
 -->
<!-- Title: %3 Pages: 1 -->
<svg width="342pt" height="419pt"
 viewBox="0.00 0.00 341.50 419.00" xmlns="http://www.w3.org/2000/svg" xmlns:xlink="http://www.w3.org/1999/xlink">
<g id="graph0" class="graph" transform="scale(1 1) rotate(0) translate(4 415)">
<title>%3</title>
<polygon fill="white" stroke="none" points="-4,4 -4,-415 337.5,-415 337.5,4 -4,4"/>
<!-- S -->
<g id="node1" class="node"><title>S</title>
<ellipse fill="none" stroke="black" cx="151.5" cy="-297.5" rx="21.5" ry="21.5"/>
<text text-anchor="middle" x="151.5" y="-294.4" font-family="monospace" font-size="12.00">S</text>
</g>
<!-- SX -->
<g id="node2" class="node"><title>SX</title>
<ellipse fill="none" stroke="black" cx="250.5" cy="-205.5" rx="21.5" ry="21.5"/>
<text text-anchor="middle" x="250.5" y="-202.4" font-family="monospace" font-size="12.00">SX</text>
</g>
<!-- S&#45;&gt;SX -->
<g id="edge4" class="edge"><title>S&#45;&gt;SX</title>
<path fill="none" stroke="black" d="M170.891,-287.634C184.409,-280.821 202.313,-270.476 215.5,-258 222.96,-250.942 229.703,-242.03 235.234,-233.612"/>
<polygon fill="black" stroke="black" points="238.211,-235.454 240.539,-225.118 232.273,-231.746 238.211,-235.454"/>
<text text-anchor="middle" x="243" y="-248.4" font-family="monospace" font-size="12.00">[Xx]</text>
</g>
<!-- C -->
<g id="node4" class="node"><title>C</title>
<ellipse fill="lightgrey" stroke="black" cx="21.5" cy="-205.5" rx="21.5" ry="21.5"/>
<text text-anchor="middle" x="21.5" y="-202.4" font-family="monospace" font-size="12.00">C</text>
</g>
<!-- S&#45;&gt;C -->
<g id="edge3" class="edge"><title>S&#45;&gt;C</title>
<path fill="none" stroke="black" d="M130.919,-290.734C99.6843,-281.817 43.2113,-264.983 36.5,-258 30.981,-252.258 27.4755,-244.605 25.254,-236.958"/>
<polygon fill="black" stroke="black" points="28.6369,-236.049 23.012,-227.071 21.8102,-237.597 28.6369,-236.049"/>
<text text-anchor="middle" x="100.5" y="-248.4" font-family="monospace" font-size="12.00">[abfnrtv\&#39;\&quot;\\\?]</text>
</g>
<!-- SO -->
<g id="node5" class="node"><title>SO</title>
<ellipse fill="lightgrey" stroke="black" cx="189.5" cy="-205.5" rx="21.5" ry="21.5"/>
<text text-anchor="middle" x="189.5" y="-202.4" font-family="monospace" font-size="12.00">SO</text>
</g>
<!-- S&#45;&gt;SO -->
<g id="edge5" class="edge"><title>S&#45;&gt;SO</title>
<path fill="none" stroke="black" d="M159.559,-277.413C164.748,-265.123 171.589,-248.921 177.422,-235.106"/>
<polygon fill="black" stroke="black" points="180.787,-236.133 181.453,-225.559 174.339,-233.41 180.787,-236.133"/>
<text text-anchor="middle" x="192.5" y="-248.4" font-family="monospace" font-size="12.00">[0&#45;7]</text>
</g>
<!-- SXH -->
<g id="node8" class="node"><title>SXH</title>
<ellipse fill="lightgrey" stroke="black" cx="250.5" cy="-113.5" rx="21.5" ry="21.5"/>
<text text-anchor="middle" x="250.5" y="-110.4" font-family="monospace" font-size="12.00">SXH</text>
</g>
<!-- SX&#45;&gt;SXH -->
<g id="edge8" class="edge"><title>SX&#45;&gt;SXH</title>
<path fill="none" stroke="black" d="M250.5,-183.626C250.5,-172.267 250.5,-157.996 250.5,-145.375"/>
<polygon fill="black" stroke="black" points="254,-145.261 250.5,-135.261 247,-145.261 254,-145.261"/>
<text text-anchor="middle" x="292" y="-156.4" font-family="monospace" font-size="12.00">[0&#45;9a&#45;fA&#45;F]</text>
</g>
<!-- START -->
<g id="node3" class="node"><title>START</title>
<ellipse fill="none" stroke="black" cx="49.5" cy="-389.5" rx="21.5" ry="21.5"/>
<text text-anchor="middle" x="49.5" y="-386.4" font-family="monospace" font-size="12.00">START</text>
</g>
<!-- START&#45;&gt;S -->
<g id="edge1" class="edge"><title>START&#45;&gt;S</title>
<path fill="none" stroke="black" d="M65.4375,-374.438C82.2046,-359.643 108.772,-336.202 127.955,-319.275"/>
<polygon fill="black" stroke="black" points="130.492,-321.704 135.674,-312.464 125.86,-316.456 130.492,-321.704"/>
<text text-anchor="middle" x="111.5" y="-340.4" font-family="monospace" font-size="12.00">\</text>
</g>
<!-- START&#45;&gt;C -->
<g id="edge2" class="edge"><title>START&#45;&gt;C</title>
<path fill="none" stroke="black" d="M45.099,-368.26C39.6969,-342.694 30.6244,-297.29 25.5,-258 24.6323,-251.347 23.9301,-244.185 23.3709,-237.378"/>
<polygon fill="black" stroke="black" points="26.8386,-236.813 22.6064,-227.1 19.8579,-237.333 26.8386,-236.813"/>
<text text-anchor="middle" x="69.5" y="-294.4" font-family="monospace" font-size="12.00">[^\&#39;\\\n]</text>
</g>
<!-- SOO -->
<g id="node6" class="node"><title>SOO</title>
<ellipse fill="lightgrey" stroke="black" cx="189.5" cy="-113.5" rx="21.5" ry="21.5"/>
<text text-anchor="middle" x="189.5" y="-110.4" font-family="monospace" font-size="12.00">SOO</text>
</g>
<!-- SO&#45;&gt;SOO -->
<g id="edge6" class="edge"><title>SO&#45;&gt;SOO</title>
<path fill="none" stroke="black" d="M189.5,-183.626C189.5,-172.267 189.5,-157.996 189.5,-145.375"/>
<polygon fill="black" stroke="black" points="193,-145.261 189.5,-135.261 186,-145.261 193,-145.261"/>
<text text-anchor="middle" x="208.5" y="-156.4" font-family="monospace" font-size="12.00">[0&#45;7]</text>
</g>
<!-- SOOO -->
<g id="node7" class="node"><title>SOOO</title>
<ellipse fill="lightgrey" stroke="black" cx="189.5" cy="-21.5" rx="21.5" ry="21.5"/>
<text text-anchor="middle" x="189.5" y="-18.4" font-family="monospace" font-size="12.00">SOOO</text>
</g>
<!-- SOO&#45;&gt;SOOO -->
<g id="edge7" class="edge"><title>SOO&#45;&gt;SOOO</title>
<path fill="none" stroke="black" d="M189.5,-91.626C189.5,-80.2668 189.5,-65.9958 189.5,-53.3745"/>
<polygon fill="black" stroke="black" points="193,-53.2608 189.5,-43.2608 186,-53.2609 193,-53.2608"/>
<text text-anchor="middle" x="208.5" y="-64.4" font-family="monospace" font-size="12.00">[0&#45;7]</text>
</g>
<!-- SXHH -->
<g id="node9" class="node"><title>SXHH</title>
<ellipse fill="lightgrey" stroke="black" cx="250.5" cy="-21.5" rx="21.5" ry="21.5"/>
<text text-anchor="middle" x="250.5" y="-18.4" font-family="monospace" font-size="12.00">SXHH</text>
</g>
<!-- SXH&#45;&gt;SXHH -->
<g id="edge9" class="edge"><title>SXH&#45;&gt;SXHH</title>
<path fill="none" stroke="black" d="M250.5,-91.626C250.5,-80.2668 250.5,-65.9958 250.5,-53.3745"/>
<polygon fill="black" stroke="black" points="254,-53.2608 250.5,-43.2608 247,-53.2609 254,-53.2608"/>
<text text-anchor="middle" x="292" y="-64.4" font-family="monospace" font-size="12.00">[0&#45;9a&#45;fA&#45;F]</text>
</g>
</g>
</svg>
