<?xml version="1.0" encoding="UTF-8" standalone="no"?>
<!DOCTYPE svg PUBLIC "-//W3C//DTD SVG 1.1//EN"
 "http://www.w3.org/Graphics/SVG/1.1/DTD/svg11.dtd">
<!-- Generated by graphviz version 2.38.0 (20140413.2041)
 -->
<!-- Title: %3 Pages: 1 -->
<svg width="194pt" height="419pt"
 viewBox="0.00 0.00 193.50 419.00" xmlns="http://www.w3.org/2000/svg" xmlns:xlink="http://www.w3.org/1999/xlink">
<g id="graph0" class="graph" transform="scale(1 1) rotate(0) translate(4 415)">
<title>%3</title>
<polygon fill="white" stroke="none" points="-4,4 -4,-415 189.5,-415 189.5,4 -4,4"/>
<!-- S -->
<g id="node1" class="node"><title>S</title>
<ellipse fill="none" stroke="black" cx="64.5" cy="-389.5" rx="21.5" ry="21.5"/>
<text text-anchor="middle" x="64.5" y="-386.4" font-family="monospace" font-size="12.00">S</text>
</g>
<!-- L -->
<g id="node2" class="node"><title>L</title>
<ellipse fill="none" stroke="black" cx="21.5" cy="-297.5" rx="21.5" ry="21.5"/>
<text text-anchor="middle" x="21.5" y="-294.4" font-family="monospace" font-size="12.00">L</text>
</g>
<!-- S&#45;&gt;L -->
<g id="edge1" class="edge"><title>S&#45;&gt;L</title>
<path fill="none" stroke="black" d="M55.5904,-369.852C49.5942,-357.302 41.5808,-340.53 34.8299,-326.4"/>
<polygon fill="black" stroke="black" points="37.8673,-324.638 30.3982,-317.124 31.5512,-327.656 37.8673,-324.638"/>
<text text-anchor="middle" x="50.5" y="-340.4" font-family="monospace" font-size="12.00">L</text>
</g>
<!-- Q -->
<g id="node3" class="node"><title>Q</title>
<ellipse fill="none" stroke="black" cx="57.5" cy="-205.5" rx="21.5" ry="21.5"/>
<text text-anchor="middle" x="57.5" y="-202.4" font-family="monospace" font-size="12.00">Q</text>
</g>
<!-- S&#45;&gt;Q -->
<g id="edge2" class="edge"><title>S&#45;&gt;Q</title>
<path fill="none" stroke="black" d="M64.9621,-367.554C65.4069,-339.579 65.6167,-288.491 62.5,-245 62.3145,-242.412 62.0717,-239.731 61.7931,-237.045"/>
<polygon fill="black" stroke="black" points="65.2361,-236.356 60.586,-226.836 58.2845,-237.178 65.2361,-236.356"/>
<text text-anchor="middle" x="73.5" y="-294.4" font-family="monospace" font-size="12.00">\&#39;</text>
</g>
<!-- L&#45;&gt;Q -->
<g id="edge3" class="edge"><title>L&#45;&gt;Q</title>
<path fill="none" stroke="black" d="M29.3115,-276.971C34.2038,-264.741 40.5933,-248.767 46.052,-235.12"/>
<polygon fill="black" stroke="black" points="49.3632,-236.266 49.8275,-225.681 42.8638,-233.666 49.3632,-236.266"/>
<text text-anchor="middle" x="50.5" y="-248.4" font-family="monospace" font-size="12.00">\&#39;</text>
</g>
<!-- QC -->
<g id="node4" class="node"><title>QC</title>
<ellipse fill="none" stroke="black" cx="57.5" cy="-113.5" rx="21.5" ry="21.5"/>
<text text-anchor="middle" x="57.5" y="-110.4" font-family="monospace" font-size="12.00">QC</text>
</g>
<!-- Q&#45;&gt;QC -->
<g id="edge4" class="edge"><title>Q&#45;&gt;QC</title>
<path fill="none" stroke="black" d="M57.5,-183.626C57.5,-172.267 57.5,-157.996 57.5,-145.375"/>
<polygon fill="black" stroke="black" points="61.0001,-145.261 57.5,-135.261 54.0001,-145.261 61.0001,-145.261"/>
<text text-anchor="middle" x="121.5" y="-156.4" font-family="monospace" font-size="12.00">&lt;FSAChar succeed&gt;</text>
</g>
<!-- QCQ -->
<g id="node5" class="node"><title>QCQ</title>
<ellipse fill="lightgrey" stroke="black" cx="57.5" cy="-21.5" rx="21.5" ry="21.5"/>
<text text-anchor="middle" x="57.5" y="-18.4" font-family="monospace" font-size="12.00">QCQ</text>
</g>
<!-- QC&#45;&gt;QCQ -->
<g id="edge5" class="edge"><title>QC&#45;&gt;QCQ</title>
<path fill="none" stroke="black" d="M57.5,-91.626C57.5,-80.2668 57.5,-65.9958 57.5,-53.3745"/>
<polygon fill="black" stroke="black" points="61.0001,-53.2608 57.5,-43.2608 54.0001,-53.2609 61.0001,-53.2608"/>
<text text-anchor="middle" x="65.5" y="-64.4" font-family="monospace" font-size="12.00">\&#39;</text>
</g>
</g>
</svg>
