<?xml version="1.0" encoding="UTF-8" standalone="no"?>
<!DOCTYPE svg PUBLIC "-//W3C//DTD SVG 1.1//EN"
 "http://www.w3.org/Graphics/SVG/1.1/DTD/svg11.dtd">
<!-- Generated by graphviz version 2.38.0 (20140413.2041)
 -->
<!-- Title: float Pages: 1 -->
<svg width="397pt" height="725pt"
 viewBox="0.00 0.00 396.96 725.00" xmlns="http://www.w3.org/2000/svg" xmlns:xlink="http://www.w3.org/1999/xlink">
<g id="graph0" class="graph" transform="scale(1 1) rotate(0) translate(4 721)">
<title>float</title>
<polygon fill="white" stroke="none" points="-4,4 -4,-721 392.96,-721 392.96,4 -4,4"/>
<!-- START -->
<g id="node1" class="node"><title>START</title>
<ellipse fill="none" stroke="black" cx="262.96" cy="-695.5" rx="21.5" ry="21.5"/>
<text text-anchor="middle" x="262.96" y="-692.4" font-family="monospace" font-size="12.00">START</text>
</g>
<!-- D -->
<g id="node2" class="node"><title>D</title>
<ellipse fill="none" stroke="black" cx="180.96" cy="-603.5" rx="21.5" ry="21.5"/>
<text text-anchor="middle" x="180.96" y="-600.4" font-family="monospace" font-size="12.00">D</text>
</g>
<!-- START&#45;&gt;D -->
<g id="edge1" class="edge"><title>START&#45;&gt;D</title>
<path fill="none" stroke="black" d="M248.676,-678.823C235.742,-664.627 216.525,-643.535 201.863,-627.443"/>
<polygon fill="black" stroke="black" points="204.401,-625.032 195.079,-619.997 199.227,-629.746 204.401,-625.032"/>
<text text-anchor="middle" x="245.96" y="-646.4" font-family="monospace" font-size="12.00">[0&#45;9]</text>
</g>
<!-- P -->
<g id="node3" class="node"><title>P</title>
<ellipse fill="none" stroke="black" cx="358.96" cy="-542.5" rx="21.5" ry="21.5"/>
<text text-anchor="middle" x="358.96" y="-539.4" font-family="monospace" font-size="12.00">P</text>
</g>
<!-- START&#45;&gt;P -->
<g id="edge2" class="edge"><title>START&#45;&gt;P</title>
<path fill="none" stroke="black" d="M274.16,-676.883C290.996,-650.401 322.928,-600.174 342.441,-569.482"/>
<polygon fill="black" stroke="black" points="345.419,-571.322 347.831,-561.005 339.512,-567.566 345.419,-571.322"/>
<text text-anchor="middle" x="316.96" y="-646.4" font-family="monospace" font-size="12.00">.(dot)</text>
</g>
<!-- D&#45;&gt;D -->
<g id="edge4" class="edge"><title>D&#45;&gt;D</title>
<path fill="none" stroke="black" d="M200.877,-611.822C211.176,-613.102 220.46,-610.328 220.46,-603.5 220.46,-599.126 216.65,-596.415 211.203,-595.369"/>
<polygon fill="black" stroke="black" points="210.94,-591.863 200.877,-595.178 210.811,-598.862 210.94,-591.863"/>
<text text-anchor="middle" x="239.46" y="-600.4" font-family="monospace" font-size="12.00">[0&#45;9]</text>
</g>
<!-- DE -->
<g id="node4" class="node"><title>DE</title>
<ellipse fill="none" stroke="black" cx="152.96" cy="-297.5" rx="21.5" ry="21.5"/>
<text text-anchor="middle" x="152.96" y="-294.4" font-family="monospace" font-size="12.00">DE</text>
</g>
<!-- D&#45;&gt;DE -->
<g id="edge3" class="edge"><title>D&#45;&gt;DE</title>
<path fill="none" stroke="black" d="M162.175,-592.567C123.909,-571.118 37.7754,-516.338 4.95956,-442 -22.5468,-379.69 72.6368,-330.717 123.294,-309.688"/>
<polygon fill="black" stroke="black" points="124.819,-312.847 132.783,-305.859 122.2,-306.356 124.819,-312.847"/>
<text text-anchor="middle" x="20.4596" y="-432.4" font-family="monospace" font-size="12.00">[Ee]</text>
</g>
<!-- DP -->
<g id="node6" class="node"><title>DP</title>
<ellipse fill="lightgrey" stroke="black" cx="180.96" cy="-481.5" rx="21.5" ry="21.5"/>
<text text-anchor="middle" x="180.96" y="-478.4" font-family="monospace" font-size="12.00">DP</text>
</g>
<!-- D&#45;&gt;DP -->
<g id="edge5" class="edge"><title>D&#45;&gt;DP</title>
<path fill="none" stroke="black" d="M180.96,-581.871C180.96,-563.068 180.96,-535.029 180.96,-513.525"/>
<polygon fill="black" stroke="black" points="184.46,-513.261 180.96,-503.261 177.46,-513.261 184.46,-513.261"/>
<text text-anchor="middle" x="203.96" y="-539.4" font-family="monospace" font-size="12.00">.(dot)</text>
</g>
<!-- PD -->
<g id="node7" class="node"><title>PD</title>
<ellipse fill="lightgrey" stroke="black" cx="231.96" cy="-389.5" rx="21.5" ry="21.5"/>
<text text-anchor="middle" x="231.96" y="-386.4" font-family="monospace" font-size="12.00">PD</text>
</g>
<!-- P&#45;&gt;PD -->
<g id="edge6" class="edge"><title>P&#45;&gt;PD</title>
<path fill="none" stroke="black" d="M345.608,-525.626C323.276,-499.073 278.224,-445.508 252.049,-414.386"/>
<polygon fill="black" stroke="black" points="254.629,-412.016 245.514,-406.616 249.272,-416.522 254.629,-412.016"/>
<text text-anchor="middle" x="342.96" y="-478.4" font-family="monospace" font-size="12.00">[0&#45;9]</text>
</g>
<!-- DES -->
<g id="node5" class="node"><title>DES</title>
<ellipse fill="none" stroke="black" cx="99.9596" cy="-205.5" rx="21.5" ry="21.5"/>
<text text-anchor="middle" x="99.9596" y="-202.4" font-family="monospace" font-size="12.00">DES</text>
</g>
<!-- DE&#45;&gt;DES -->
<g id="edge15" class="edge"><title>DE&#45;&gt;DES</title>
<path fill="none" stroke="black" d="M136.003,-283.917C127.917,-277.088 118.766,-268.003 112.96,-258 109.29,-251.677 106.646,-244.331 104.745,-237.202"/>
<polygon fill="black" stroke="black" points="108.072,-236.043 102.458,-227.057 101.243,-237.582 108.072,-236.043"/>
<text text-anchor="middle" x="128.46" y="-248.4" font-family="monospace" font-size="12.00">[+&#45;]</text>
</g>
<!-- DED -->
<g id="node8" class="node"><title>DED</title>
<ellipse fill="lightgrey" stroke="black" cx="125.96" cy="-113.5" rx="21.5" ry="21.5"/>
<text text-anchor="middle" x="125.96" y="-110.4" font-family="monospace" font-size="12.00">DED</text>
</g>
<!-- DE&#45;&gt;DED -->
<g id="edge16" class="edge"><title>DE&#45;&gt;DED</title>
<path fill="none" stroke="black" d="M154.056,-275.689C155.006,-247.431 154.828,-195.568 143.96,-153 143.029,-149.354 141.754,-145.633 140.31,-142.011"/>
<polygon fill="black" stroke="black" points="143.467,-140.496 136.211,-132.776 137.069,-143.336 143.467,-140.496"/>
<text text-anchor="middle" x="172.96" y="-202.4" font-family="monospace" font-size="12.00">[0&#45;9]</text>
</g>
<!-- DES&#45;&gt;DED -->
<g id="edge17" class="edge"><title>DES&#45;&gt;DED</title>
<path fill="none" stroke="black" d="M100.673,-183.598C101.432,-174.096 102.951,-162.811 105.96,-153 107.143,-149.141 108.708,-145.21 110.442,-141.407"/>
<polygon fill="black" stroke="black" points="113.639,-142.839 114.981,-132.329 107.378,-139.708 113.639,-142.839"/>
<text text-anchor="middle" x="124.96" y="-156.4" font-family="monospace" font-size="12.00">[0&#45;9]</text>
</g>
<!-- DP&#45;&gt;DE -->
<g id="edge7" class="edge"><title>DP&#45;&gt;DE</title>
<path fill="none" stroke="black" d="M177.697,-460.131C175.488,-446.281 172.518,-427.539 169.96,-411 165.658,-383.194 160.88,-351.502 157.488,-328.857"/>
<polygon fill="black" stroke="black" points="160.929,-328.202 155.988,-318.83 154.006,-329.238 160.929,-328.202"/>
<text text-anchor="middle" x="185.46" y="-386.4" font-family="monospace" font-size="12.00">[Ee]</text>
</g>
<!-- DP&#45;&gt;PD -->
<g id="edge9" class="edge"><title>DP&#45;&gt;PD</title>
<path fill="none" stroke="black" d="M191.28,-462.287C198.539,-449.478 208.377,-432.117 216.56,-417.676"/>
<polygon fill="black" stroke="black" points="219.769,-419.112 221.654,-408.686 213.679,-415.66 219.769,-419.112"/>
<text text-anchor="middle" x="228.96" y="-432.4" font-family="monospace" font-size="12.00">[0&#45;9]</text>
</g>
<!-- PDF -->
<g id="node9" class="node"><title>PDF</title>
<ellipse fill="lightgrey" stroke="black" cx="125.96" cy="-21.5" rx="21.5" ry="21.5"/>
<text text-anchor="middle" x="125.96" y="-18.4" font-family="monospace" font-size="12.00">PDF</text>
</g>
<!-- DP&#45;&gt;PDF -->
<g id="edge8" class="edge"><title>DP&#45;&gt;PDF</title>
<path fill="none" stroke="black" d="M159.912,-476.233C122.881,-467.362 49.9596,-443.203 49.9596,-390.5 49.9596,-390.5 49.9596,-390.5 49.9596,-112.5 49.9596,-81.0857 77.3229,-54.9669 99.2116,-39.0992"/>
<polygon fill="black" stroke="black" points="101.322,-41.8956 107.562,-33.3336 97.3443,-36.1352 101.322,-41.8956"/>
<text text-anchor="middle" x="65.4596" y="-248.4" font-family="monospace" font-size="12.00">[Ff]</text>
</g>
<!-- DPL -->
<g id="node10" class="node"><title>DPL</title>
<ellipse fill="lightgrey" stroke="black" cx="298.96" cy="-21.5" rx="21.5" ry="21.5"/>
<text text-anchor="middle" x="298.96" y="-18.4" font-family="monospace" font-size="12.00">DPL</text>
</g>
<!-- DP&#45;&gt;DPL -->
<g id="edge10" class="edge"><title>DP&#45;&gt;DPL</title>
<path fill="none" stroke="black" d="M201.61,-474.722C248.301,-461.047 357.96,-425.232 357.96,-390.5 357.96,-390.5 357.96,-390.5 357.96,-112.5 357.96,-85.281 338.851,-59.8943 322.384,-43.0697"/>
<polygon fill="black" stroke="black" points="324.69,-40.4303 315.082,-35.9662 319.809,-45.4479 324.69,-40.4303"/>
<text text-anchor="middle" x="373.46" y="-248.4" font-family="monospace" font-size="12.00">[Ll]</text>
</g>
<!-- PD&#45;&gt;DE -->
<g id="edge13" class="edge"><title>PD&#45;&gt;DE</title>
<path fill="none" stroke="black" d="M215.136,-375.971C206.219,-368.889 195.398,-359.557 186.96,-350 180.294,-342.451 173.939,-333.502 168.566,-325.199"/>
<polygon fill="black" stroke="black" points="171.421,-323.164 163.152,-316.54 165.486,-326.875 171.421,-323.164"/>
<text text-anchor="middle" x="202.46" y="-340.4" font-family="monospace" font-size="12.00">[Ee]</text>
</g>
<!-- PD&#45;&gt;PD -->
<g id="edge11" class="edge"><title>PD&#45;&gt;PD</title>
<path fill="none" stroke="black" d="M251.877,-397.822C262.176,-399.102 271.46,-396.328 271.46,-389.5 271.46,-385.126 267.65,-382.415 262.203,-381.369"/>
<polygon fill="black" stroke="black" points="261.94,-377.863 251.877,-381.178 261.811,-384.862 261.94,-377.863"/>
<text text-anchor="middle" x="290.46" y="-386.4" font-family="monospace" font-size="12.00">[0&#45;9]</text>
</g>
<!-- PD&#45;&gt;PDF -->
<g id="edge12" class="edge"><title>PD&#45;&gt;PDF</title>
<path fill="none" stroke="black" d="M231.96,-367.767C231.96,-349.525 231.96,-322.25 231.96,-298.5 231.96,-298.5 231.96,-298.5 231.96,-112.5 231.96,-88.7804 233.599,-78.8333 217.96,-61 202.405,-43.2634 177.347,-33.5009 157.308,-28.2486"/>
<polygon fill="black" stroke="black" points="157.9,-24.7922 147.363,-25.8947 156.288,-31.6039 157.9,-24.7922"/>
<text text-anchor="middle" x="247.46" y="-202.4" font-family="monospace" font-size="12.00">[Ff]</text>
</g>
<!-- PD&#45;&gt;DPL -->
<g id="edge14" class="edge"><title>PD&#45;&gt;DPL</title>
<path fill="none" stroke="black" d="M249.214,-376.339C269.065,-360.776 298.96,-331.81 298.96,-298.5 298.96,-298.5 298.96,-298.5 298.96,-112.5 298.96,-92.832 298.96,-70.7464 298.96,-53.3757"/>
<polygon fill="black" stroke="black" points="302.46,-53.233 298.96,-43.233 295.46,-53.2331 302.46,-53.233"/>
<text text-anchor="middle" x="314.46" y="-202.4" font-family="monospace" font-size="12.00">[Ll]</text>
</g>
<!-- DED&#45;&gt;DED -->
<g id="edge18" class="edge"><title>DED&#45;&gt;DED</title>
<path fill="none" stroke="black" d="M145.877,-121.822C156.176,-123.102 165.46,-120.328 165.46,-113.5 165.46,-109.126 161.65,-106.415 156.203,-105.369"/>
<polygon fill="black" stroke="black" points="155.94,-101.863 145.877,-105.178 155.811,-108.862 155.94,-101.863"/>
<text text-anchor="middle" x="184.46" y="-110.4" font-family="monospace" font-size="12.00">[0&#45;9]</text>
</g>
<!-- DED&#45;&gt;PDF -->
<g id="edge19" class="edge"><title>DED&#45;&gt;PDF</title>
<path fill="none" stroke="black" d="M125.96,-91.626C125.96,-80.2668 125.96,-65.9958 125.96,-53.3745"/>
<polygon fill="black" stroke="black" points="129.46,-53.2608 125.96,-43.2608 122.46,-53.2609 129.46,-53.2608"/>
<text text-anchor="middle" x="141.46" y="-64.4" font-family="monospace" font-size="12.00">[Ff]</text>
</g>
<!-- DED&#45;&gt;DPL -->
<g id="edge20" class="edge"><title>DED&#45;&gt;DPL</title>
<path fill="none" stroke="black" d="M144.803,-102.697C175.221,-86.8726 235.316,-55.6095 270.822,-37.138"/>
<polygon fill="black" stroke="black" points="272.883,-40.011 280.139,-32.2908 269.653,-33.801 272.883,-40.011"/>
<text text-anchor="middle" x="238.46" y="-64.4" font-family="monospace" font-size="12.00">[Ll]</text>
</g>
</g>
</svg>
