<?xml version="1.0" encoding="UTF-8" standalone="no"?>
<!DOCTYPE svg PUBLIC "-//W3C//DTD SVG 1.1//EN"
 "http://www.w3.org/Graphics/SVG/1.1/DTD/svg11.dtd">
<!-- Generated by graphviz version 2.38.0 (20140413.2041)
 -->
<!-- Title: int Pages: 1 -->
<svg width="425pt" height="511pt"
 viewBox="0.00 0.00 424.50 511.00" xmlns="http://www.w3.org/2000/svg" xmlns:xlink="http://www.w3.org/1999/xlink">
<g id="graph0" class="graph" transform="scale(1 1) rotate(0) translate(4 507)">
<title>int</title>
<polygon fill="white" stroke="none" points="-4,4 -4,-507 420.5,-507 420.5,4 -4,4"/>
<!-- START -->
<g id="node1" class="node"><title>START</title>
<ellipse fill="none" stroke="black" cx="91.5" cy="-481.5" rx="21.5" ry="21.5"/>
<text text-anchor="middle" x="91.5" y="-478.4" font-family="monospace" font-size="12.00">START</text>
</g>
<!-- Z -->
<g id="node3" class="node"><title>Z</title>
<ellipse fill="lightgrey" stroke="black" cx="190.5" cy="-389.5" rx="21.5" ry="21.5"/>
<text text-anchor="middle" x="190.5" y="-386.4" font-family="monospace" font-size="12.00">Z</text>
</g>
<!-- START&#45;&gt;Z -->
<g id="edge1" class="edge"><title>START&#45;&gt;Z</title>
<path fill="none" stroke="black" d="M106.969,-466.438C123.147,-451.73 148.727,-428.475 167.32,-411.573"/>
<polygon fill="black" stroke="black" points="169.768,-414.077 174.813,-404.761 165.059,-408.898 169.768,-414.077"/>
<text text-anchor="middle" x="151.5" y="-432.4" font-family="monospace" font-size="12.00">0</text>
</g>
<!-- D -->
<g id="node4" class="node"><title>D</title>
<ellipse fill="lightgrey" stroke="black" cx="21.5" cy="-205.5" rx="21.5" ry="21.5"/>
<text text-anchor="middle" x="21.5" y="-202.4" font-family="monospace" font-size="12.00">D</text>
</g>
<!-- START&#45;&gt;D -->
<g id="edge2" class="edge"><title>START&#45;&gt;D</title>
<path fill="none" stroke="black" d="M86.3527,-460.352C74.1661,-412.65 43.4973,-292.604 29.1381,-236.398"/>
<polygon fill="black" stroke="black" points="32.5212,-235.5 26.6548,-226.677 25.739,-237.233 32.5212,-235.5"/>
<text text-anchor="middle" x="77.5" y="-340.4" font-family="monospace" font-size="12.00">[1&#45;9]</text>
</g>
<!-- ZX -->
<g id="node2" class="node"><title>ZX</title>
<ellipse fill="none" stroke="black" cx="190.5" cy="-297.5" rx="21.5" ry="21.5"/>
<text text-anchor="middle" x="190.5" y="-294.4" font-family="monospace" font-size="12.00">ZX</text>
</g>
<!-- H -->
<g id="node6" class="node"><title>H</title>
<ellipse fill="lightgrey" stroke="black" cx="190.5" cy="-205.5" rx="21.5" ry="21.5"/>
<text text-anchor="middle" x="190.5" y="-202.4" font-family="monospace" font-size="12.00">H</text>
</g>
<!-- ZX&#45;&gt;H -->
<g id="edge10" class="edge"><title>ZX&#45;&gt;H</title>
<path fill="none" stroke="black" d="M190.5,-275.626C190.5,-264.267 190.5,-249.996 190.5,-237.375"/>
<polygon fill="black" stroke="black" points="194,-237.261 190.5,-227.261 187,-237.261 194,-237.261"/>
<text text-anchor="middle" x="209.5" y="-248.4" font-family="monospace" font-size="12.00">&lt;hex&gt;</text>
</g>
<!-- Z&#45;&gt;ZX -->
<g id="edge3" class="edge"><title>Z&#45;&gt;ZX</title>
<path fill="none" stroke="black" d="M190.5,-367.626C190.5,-356.267 190.5,-341.996 190.5,-329.375"/>
<polygon fill="black" stroke="black" points="194,-329.261 190.5,-319.261 187,-329.261 194,-329.261"/>
<text text-anchor="middle" x="206" y="-340.4" font-family="monospace" font-size="12.00">[Xx]</text>
</g>
<!-- O -->
<g id="node5" class="node"><title>O</title>
<ellipse fill="lightgrey" stroke="black" cx="307.5" cy="-205.5" rx="21.5" ry="21.5"/>
<text text-anchor="middle" x="307.5" y="-202.4" font-family="monospace" font-size="12.00">O</text>
</g>
<!-- Z&#45;&gt;O -->
<g id="edge4" class="edge"><title>Z&#45;&gt;O</title>
<path fill="none" stroke="black" d="M205.271,-373.793C211.843,-366.876 219.446,-358.33 225.5,-350 253.052,-312.091 278.825,-264.144 293.874,-234.398"/>
<polygon fill="black" stroke="black" points="297.024,-235.924 298.372,-225.416 290.765,-232.79 297.024,-235.924"/>
<text text-anchor="middle" x="290.5" y="-294.4" font-family="monospace" font-size="12.00">[0&#45;7]</text>
</g>
<!-- L -->
<g id="node7" class="node"><title>L</title>
<ellipse fill="lightgrey" stroke="black" cx="205.5" cy="-113.5" rx="21.5" ry="21.5"/>
<text text-anchor="middle" x="205.5" y="-110.4" font-family="monospace" font-size="12.00">L</text>
</g>
<!-- Z&#45;&gt;L -->
<g id="edge6" class="edge"><title>Z&#45;&gt;L</title>
<path fill="none" stroke="black" d="M178.189,-371.509C150.384,-330.871 88.4613,-226.014 132.5,-153 141.727,-137.702 159.284,-128.173 174.867,-122.422"/>
<polygon fill="black" stroke="black" points="176.319,-125.628 184.715,-119.166 174.121,-118.982 176.319,-125.628"/>
<text text-anchor="middle" x="139" y="-248.4" font-family="monospace" font-size="12.00">[Ll]</text>
</g>
<!-- U -->
<g id="node8" class="node"><title>U</title>
<ellipse fill="lightgrey" stroke="black" cx="313.5" cy="-113.5" rx="21.5" ry="21.5"/>
<text text-anchor="middle" x="313.5" y="-110.4" font-family="monospace" font-size="12.00">U</text>
</g>
<!-- Z&#45;&gt;U -->
<g id="edge5" class="edge"><title>Z&#45;&gt;U</title>
<path fill="none" stroke="black" d="M210.527,-380.945C255.264,-362.737 361.871,-311.576 393.5,-227 405.147,-195.856 403.956,-178.401 382.5,-153 372.1,-140.688 356.714,-131.568 343.108,-125.304"/>
<polygon fill="black" stroke="black" points="344.183,-121.957 333.612,-121.242 341.43,-128.393 344.183,-121.957"/>
<text text-anchor="middle" x="401" y="-248.4" font-family="monospace" font-size="12.00">[Uu]</text>
</g>
<!-- D&#45;&gt;D -->
<g id="edge7" class="edge"><title>D&#45;&gt;D</title>
<path fill="none" stroke="black" d="M41.4176,-213.822C51.7165,-215.102 61,-212.328 61,-205.5 61,-201.126 57.19,-198.415 51.7439,-197.369"/>
<polygon fill="black" stroke="black" points="51.4804,-193.863 41.4176,-197.178 51.3513,-200.862 51.4804,-193.863"/>
<text text-anchor="middle" x="80" y="-202.4" font-family="monospace" font-size="12.00">[0&#45;9]</text>
</g>
<!-- D&#45;&gt;L -->
<g id="edge9" class="edge"><title>D&#45;&gt;L</title>
<path fill="none" stroke="black" d="M34.4128,-187.92C44.057,-176.582 58.1717,-162.026 73.5,-153 105.055,-134.419 146.191,-124.282 174.094,-119.141"/>
<polygon fill="black" stroke="black" points="174.838,-122.565 184.093,-117.409 173.642,-115.668 174.838,-122.565"/>
<text text-anchor="middle" x="89" y="-156.4" font-family="monospace" font-size="12.00">[Ll]</text>
</g>
<!-- D&#45;&gt;U -->
<g id="edge8" class="edge"><title>D&#45;&gt;U</title>
<path fill="none" stroke="black" d="M41.3493,-196.475C68.435,-185.703 118.627,-166.378 162.5,-153 194.463,-143.253 203.118,-143.247 235.5,-135 251.222,-130.996 268.692,-126.416 283.107,-122.603"/>
<polygon fill="black" stroke="black" points="284.225,-125.927 292.994,-119.981 282.431,-119.161 284.225,-125.927"/>
<text text-anchor="middle" x="178" y="-156.4" font-family="monospace" font-size="12.00">[Uu]</text>
</g>
<!-- O&#45;&gt;O -->
<g id="edge11" class="edge"><title>O&#45;&gt;O</title>
<path fill="none" stroke="black" d="M327.418,-213.822C337.716,-215.102 347,-212.328 347,-205.5 347,-201.126 343.19,-198.415 337.744,-197.369"/>
<polygon fill="black" stroke="black" points="337.48,-193.863 327.418,-197.178 337.351,-200.862 337.48,-193.863"/>
<text text-anchor="middle" x="366" y="-202.4" font-family="monospace" font-size="12.00">[0&#45;7]</text>
</g>
<!-- O&#45;&gt;L -->
<g id="edge12" class="edge"><title>O&#45;&gt;L</title>
<path fill="none" stroke="black" d="M290.746,-191.222C281.673,-183.921 270.338,-174.619 260.5,-166 249.63,-156.478 237.9,-145.584 228.076,-136.275"/>
<polygon fill="black" stroke="black" points="230.313,-133.572 220.659,-129.206 225.483,-138.639 230.313,-133.572"/>
<text text-anchor="middle" x="276" y="-156.4" font-family="monospace" font-size="12.00">[Ll]</text>
</g>
<!-- O&#45;&gt;U -->
<g id="edge13" class="edge"><title>O&#45;&gt;U</title>
<path fill="none" stroke="black" d="M324.656,-192.275C332.604,-185.537 341.221,-176.426 345.5,-166 349.889,-155.305 344.623,-144.307 337.177,-135.236"/>
<polygon fill="black" stroke="black" points="339.64,-132.745 330.262,-127.816 334.519,-137.517 339.64,-132.745"/>
<text text-anchor="middle" x="363" y="-156.4" font-family="monospace" font-size="12.00">[Uu]</text>
</g>
<!-- H&#45;&gt;H -->
<g id="edge14" class="edge"><title>H&#45;&gt;H</title>
<path fill="none" stroke="black" d="M210.418,-213.822C220.716,-215.102 230,-212.328 230,-205.5 230,-201.126 226.19,-198.415 220.744,-197.369"/>
<polygon fill="black" stroke="black" points="220.48,-193.863 210.418,-197.178 220.351,-200.862 220.48,-193.863"/>
<text text-anchor="middle" x="249" y="-202.4" font-family="monospace" font-size="12.00">&lt;hex&gt;</text>
</g>
<!-- H&#45;&gt;L -->
<g id="edge15" class="edge"><title>H&#45;&gt;L</title>
<path fill="none" stroke="black" d="M193.904,-184.078C195.841,-172.455 198.304,-157.678 200.461,-144.734"/>
<polygon fill="black" stroke="black" points="203.918,-145.281 202.11,-134.842 197.013,-144.13 203.918,-145.281"/>
<text text-anchor="middle" x="215" y="-156.4" font-family="monospace" font-size="12.00">[Ll]</text>
</g>
<!-- H&#45;&gt;U -->
<g id="edge16" class="edge"><title>H&#45;&gt;U</title>
<path fill="none" stroke="black" d="M211.661,-201.42C234.102,-197.129 269.313,-187.327 291.5,-166 297.729,-160.012 302.285,-151.976 305.578,-144.034"/>
<polygon fill="black" stroke="black" points="308.902,-145.133 308.996,-134.539 302.316,-142.762 308.902,-145.133"/>
<text text-anchor="middle" x="317" y="-156.4" font-family="monospace" font-size="12.00">[Uu]</text>
</g>
<!-- UL -->
<g id="node9" class="node"><title>UL</title>
<ellipse fill="lightgrey" stroke="black" cx="265.5" cy="-21.5" rx="21.5" ry="21.5"/>
<text text-anchor="middle" x="265.5" y="-18.4" font-family="monospace" font-size="12.00">UL</text>
</g>
<!-- L&#45;&gt;UL -->
<g id="edge17" class="edge"><title>L&#45;&gt;UL</title>
<path fill="none" stroke="black" d="M217.069,-95.1471C225.95,-81.8248 238.351,-63.2242 248.38,-48.1798"/>
<polygon fill="black" stroke="black" points="251.332,-50.0616 253.967,-39.7996 245.508,-46.1787 251.332,-50.0616"/>
<text text-anchor="middle" x="255" y="-64.4" font-family="monospace" font-size="12.00">[Uu]</text>
</g>
<!-- U&#45;&gt;UL -->
<g id="edge18" class="edge"><title>U&#45;&gt;UL</title>
<path fill="none" stroke="black" d="M303.786,-94.2872C297,-81.5626 287.817,-64.3452 280.146,-49.9617"/>
<polygon fill="black" stroke="black" points="283.158,-48.1711 275.364,-40.9947 276.982,-51.4653 283.158,-48.1711"/>
<text text-anchor="middle" x="308" y="-64.4" font-family="monospace" font-size="12.00">[Ll]</text>
</g>
</g>
</svg>
