<?xml version="1.0" encoding="UTF-8" standalone="no"?>
<!DOCTYPE svg PUBLIC "-//W3C//DTD SVG 1.1//EN"
 "http://www.w3.org/Graphics/SVG/1.1/DTD/svg11.dtd">
<!-- Generated by graphviz version 2.38.0 (20140413.2041)
 -->
<!-- Title: space Pages: 1 -->
<svg width="197pt" height="143pt"
 viewBox="0.00 0.00 197.00 143.00" xmlns="http://www.w3.org/2000/svg" xmlns:xlink="http://www.w3.org/1999/xlink">
<g id="graph0" class="graph" transform="scale(1 1) rotate(0) translate(4 139)">
<title>space</title>
<polygon fill="white" stroke="none" points="-4,4 -4,-139 193,-139 193,4 -4,4"/>
<!-- START -->
<g id="node1" class="node"><title>START</title>
<ellipse fill="none" stroke="black" cx="21.5" cy="-113.5" rx="21.5" ry="21.5"/>
<text text-anchor="middle" x="21.5" y="-110.4" font-family="monospace" font-size="12.00">START</text>
</g>
<!-- SPACE -->
<g id="node2" class="node"><title>SPACE</title>
<ellipse fill="lightgrey" stroke="black" cx="21.5" cy="-21.5" rx="21.5" ry="21.5"/>
<text text-anchor="middle" x="21.5" y="-18.4" font-family="monospace" font-size="12.00">SPACE</text>
</g>
<!-- START&#45;&gt;SPACE -->
<g id="edge1" class="edge"><title>START&#45;&gt;SPACE</title>
<path fill="none" stroke="black" d="M21.5,-91.626C21.5,-80.2668 21.5,-65.9958 21.5,-53.3745"/>
<polygon fill="black" stroke="black" points="25.0001,-53.2608 21.5,-43.2608 18.0001,-53.2609 25.0001,-53.2608"/>
<text text-anchor="middle" x="85.5" y="-64.4" font-family="monospace" font-size="12.00">[&lt;space&gt;\t\r\f\v]</text>
</g>
<!-- SPACE&#45;&gt;SPACE -->
<g id="edge2" class="edge"><title>SPACE&#45;&gt;SPACE</title>
<path fill="none" stroke="black" d="M41.4176,-29.8218C51.7165,-31.1021 61,-28.3281 61,-21.5 61,-17.1257 57.19,-14.4153 51.7439,-13.3687"/>
<polygon fill="black" stroke="black" points="51.4804,-9.86337 41.4176,-13.1782 51.3513,-16.8622 51.4804,-9.86337"/>
<text text-anchor="middle" x="125" y="-18.4" font-family="monospace" font-size="12.00">[&lt;space&gt;\t\r\f\v]</text>
</g>
</g>
</svg>
