<?xml version="1.0" encoding="UTF-8" standalone="no"?>
<!DOCTYPE svg PUBLIC "-//W3C//DTD SVG 1.1//EN"
 "http://www.w3.org/Graphics/SVG/1.1/DTD/svg11.dtd">
<!-- Generated by graphviz version 2.38.0 (20140413.2041)
 -->
<!-- Title: %3 Pages: 1 -->
<svg width="360pt" height="494pt"
 viewBox="0.00 0.00 360.00 494.00" xmlns="http://www.w3.org/2000/svg" xmlns:xlink="http://www.w3.org/1999/xlink">
<g id="graph0" class="graph" transform="scale(1 1) rotate(0) translate(4 490)">
<title>%3</title>
<polygon fill="white" stroke="none" points="-4,4 -4,-490 356,-490 356,4 -4,4"/>
<!-- S -->
<g id="node1" class="node"><title>S</title>
<ellipse fill="none" stroke="black" cx="162" cy="-350" rx="29" ry="29"/>
<text text-anchor="middle" x="162" y="-346.9" font-family="monospace" font-size="12.00">S</text>
</g>
<!-- SX -->
<g id="node2" class="node"><title>SX</title>
<ellipse fill="none" stroke="black" cx="269" cy="-243" rx="29" ry="29"/>
<text text-anchor="middle" x="269" y="-239.9" font-family="monospace" font-size="12.00">SX</text>
</g>
<!-- S&#45;&gt;SX -->
<g id="edge4" class="edge"><title>S&#45;&gt;SX</title>
<path fill="none" stroke="black" d="M185.405,-332.659C196.66,-324.336 210.051,-313.724 221,-303 229.755,-294.424 238.472,-284.312 246.026,-274.904"/>
<polygon fill="black" stroke="black" points="248.909,-276.899 252.337,-266.874 243.406,-272.573 248.909,-276.899"/>
<text text-anchor="middle" x="247.5" y="-293.4" font-family="monospace" font-size="12.00">[Xx]</text>
</g>
<!-- C -->
<g id="node4" class="node"><title>C</title>
<ellipse fill="lightgrey" stroke="black" cx="29" cy="-243" rx="29" ry="29"/>
<text text-anchor="middle" x="29" y="-239.9" font-family="monospace" font-size="12.00">C</text>
</g>
<!-- S&#45;&gt;C -->
<g id="edge3" class="edge"><title>S&#45;&gt;C</title>
<path fill="none" stroke="black" d="M134.755,-339.195C100.625,-326.806 46.1856,-306.651 43,-303 37.8505,-297.099 34.5117,-289.644 32.366,-282.038"/>
<polygon fill="black" stroke="black" points="35.7408,-281.087 30.1806,-272.069 28.9032,-282.586 35.7408,-281.087"/>
<text text-anchor="middle" x="107" y="-293.4" font-family="monospace" font-size="12.00">[abfnrtv\&#39;\&quot;\\\?]</text>
</g>
<!-- SO -->
<g id="node5" class="node"><title>SO</title>
<ellipse fill="lightgrey" stroke="black" cx="193" cy="-243" rx="29" ry="29"/>
<text text-anchor="middle" x="193" y="-239.9" font-family="monospace" font-size="12.00">SO</text>
</g>
<!-- S&#45;&gt;SO -->
<g id="edge5" class="edge"><title>S&#45;&gt;SO</title>
<path fill="none" stroke="black" d="M169.983,-321.96C173.672,-309.467 178.109,-294.437 182.099,-280.922"/>
<polygon fill="black" stroke="black" points="185.569,-281.53 185.044,-270.948 178.855,-279.548 185.569,-281.53"/>
<text text-anchor="middle" x="198" y="-293.4" font-family="monospace" font-size="12.00">[0&#45;7]</text>
</g>
<!-- SXH -->
<g id="node8" class="node"><title>SXH</title>
<ellipse fill="lightgrey" stroke="black" cx="269" cy="-136" rx="29" ry="29"/>
<text text-anchor="middle" x="269" y="-132.9" font-family="monospace" font-size="12.00">SXH</text>
</g>
<!-- SX&#45;&gt;SXH -->
<g id="edge8" class="edge"><title>SX&#45;&gt;SXH</title>
<path fill="none" stroke="black" d="M269,-213.862C269,-202.092 269,-188.224 269,-175.53"/>
<polygon fill="black" stroke="black" points="272.5,-175.216 269,-165.216 265.5,-175.216 272.5,-175.216"/>
<text text-anchor="middle" x="310.5" y="-186.4" font-family="monospace" font-size="12.00">[0&#45;9a&#45;fA&#45;F]</text>
</g>
<!-- START -->
<g id="node3" class="node"><title>START</title>
<ellipse fill="none" stroke="black" cx="58" cy="-457" rx="29" ry="29"/>
<text text-anchor="middle" x="58" y="-453.9" font-family="monospace" font-size="12.00">START</text>
</g>
<!-- START&#45;&gt;S -->
<g id="edge1" class="edge"><title>START&#45;&gt;S</title>
<path fill="none" stroke="black" d="M78.0522,-435.755C94.1663,-419.486 116.963,-396.47 134.735,-378.527"/>
<polygon fill="black" stroke="black" points="137.459,-380.751 142.009,-371.183 132.485,-375.825 137.459,-380.751"/>
<text text-anchor="middle" x="121" y="-400.4" font-family="monospace" font-size="12.00">\</text>
</g>
<!-- START&#45;&gt;C -->
<g id="edge2" class="edge"><title>START&#45;&gt;C</title>
<path fill="none" stroke="black" d="M52.3225,-428.497C46.2569,-397.976 36.8611,-347.19 32,-303 31.2787,-296.443 30.7305,-289.458 30.314,-282.672"/>
<polygon fill="black" stroke="black" points="33.7867,-282.064 29.7617,-272.264 26.7966,-282.435 33.7867,-282.064"/>
<text text-anchor="middle" x="77" y="-346.9" font-family="monospace" font-size="12.00">[^\&#39;\\\n]</text>
</g>
<!-- SOO -->
<g id="node6" class="node"><title>SOO</title>
<ellipse fill="lightgrey" stroke="black" cx="193" cy="-136" rx="29" ry="29"/>
<text text-anchor="middle" x="193" y="-132.9" font-family="monospace" font-size="12.00">SOO</text>
</g>
<!-- SO&#45;&gt;SOO -->
<g id="edge6" class="edge"><title>SO&#45;&gt;SOO</title>
<path fill="none" stroke="black" d="M193,-213.862C193,-202.092 193,-188.224 193,-175.53"/>
<polygon fill="black" stroke="black" points="196.5,-175.216 193,-165.216 189.5,-175.216 196.5,-175.216"/>
<text text-anchor="middle" x="212" y="-186.4" font-family="monospace" font-size="12.00">[0&#45;7]</text>
</g>
<!-- SOOO -->
<g id="node7" class="node"><title>SOOO</title>
<ellipse fill="lightgrey" stroke="black" cx="193" cy="-29" rx="29" ry="29"/>
<text text-anchor="middle" x="193" y="-25.9" font-family="monospace" font-size="12.00">SOOO</text>
</g>
<!-- SOO&#45;&gt;SOOO -->
<g id="edge7" class="edge"><title>SOO&#45;&gt;SOOO</title>
<path fill="none" stroke="black" d="M193,-106.862C193,-95.0923 193,-81.2237 193,-68.5301"/>
<polygon fill="black" stroke="black" points="196.5,-68.2157 193,-58.2157 189.5,-68.2158 196.5,-68.2157"/>
<text text-anchor="middle" x="212" y="-79.4" font-family="monospace" font-size="12.00">[0&#45;7]</text>
</g>
<!-- SXHH -->
<g id="node9" class="node"><title>SXHH</title>
<ellipse fill="lightgrey" stroke="black" cx="269" cy="-29" rx="29" ry="29"/>
<text text-anchor="middle" x="269" y="-25.9" font-family="monospace" font-size="12.00">SXHH</text>
</g>
<!-- SXH&#45;&gt;SXHH -->
<g id="edge9" class="edge"><title>SXH&#45;&gt;SXHH</title>
<path fill="none" stroke="black" d="M269,-106.862C269,-95.0923 269,-81.2237 269,-68.5301"/>
<polygon fill="black" stroke="black" points="272.5,-68.2157 269,-58.2157 265.5,-68.2158 272.5,-68.2157"/>
<text text-anchor="middle" x="310.5" y="-79.4" font-family="monospace" font-size="12.00">[0&#45;9a&#45;fA&#45;F]</text>
</g>
</g>
</svg>
