<?xml version="1.0" encoding="UTF-8" standalone="no"?>
<!DOCTYPE svg PUBLIC "-//W3C//DTD SVG 1.1//EN"
 "http://www.w3.org/Graphics/SVG/1.1/DTD/svg11.dtd">
<!-- Generated by graphviz version 2.38.0 (20140413.2041)
 -->
<!-- Title: %3 Pages: 1 -->
<svg width="206pt" height="494pt"
 viewBox="0.00 0.00 206.00 494.00" xmlns="http://www.w3.org/2000/svg" xmlns:xlink="http://www.w3.org/1999/xlink">
<g id="graph0" class="graph" transform="scale(1 1) rotate(0) translate(4 490)">
<title>%3</title>
<polygon fill="white" stroke="none" points="-4,4 -4,-490 202,-490 202,4 -4,4"/>
<!-- S -->
<g id="node1" class="node"><title>S</title>
<ellipse fill="none" stroke="black" cx="77" cy="-457" rx="29" ry="29"/>
<text text-anchor="middle" x="77" y="-453.9" font-family="monospace" font-size="12.00">S</text>
</g>
<!-- L -->
<g id="node2" class="node"><title>L</title>
<ellipse fill="none" stroke="black" cx="29" cy="-350" rx="29" ry="29"/>
<text text-anchor="middle" x="29" y="-346.9" font-family="monospace" font-size="12.00">L</text>
</g>
<!-- S&#45;&gt;L -->
<g id="edge1" class="edge"><title>S&#45;&gt;L</title>
<path fill="none" stroke="black" d="M65.2579,-430.314C59.1562,-416.967 51.6096,-400.459 44.9839,-385.965"/>
<polygon fill="black" stroke="black" points="48.1281,-384.424 40.7873,-376.785 41.7618,-387.335 48.1281,-384.424"/>
<text text-anchor="middle" x="60" y="-400.4" font-family="monospace" font-size="12.00">L</text>
</g>
<!-- Q -->
<g id="node3" class="node"><title>Q</title>
<ellipse fill="none" stroke="black" cx="70" cy="-243" rx="29" ry="29"/>
<text text-anchor="middle" x="70" y="-239.9" font-family="monospace" font-size="12.00">Q</text>
</g>
<!-- S&#45;&gt;Q -->
<g id="edge2" class="edge"><title>S&#45;&gt;Q</title>
<path fill="none" stroke="black" d="M76.2652,-427.799C75.3779,-394.769 73.7812,-338.406 72,-290 71.9074,-287.484 71.8073,-284.89 71.703,-282.277"/>
<polygon fill="black" stroke="black" points="75.1973,-282.064 71.2864,-272.217 68.2033,-282.353 75.1973,-282.064"/>
<text text-anchor="middle" x="82" y="-346.9" font-family="monospace" font-size="12.00">\&#39;</text>
</g>
<!-- L&#45;&gt;Q -->
<g id="edge3" class="edge"><title>L&#45;&gt;Q</title>
<path fill="none" stroke="black" d="M39.2403,-322.775C44.3279,-309.746 50.5515,-293.807 56.0662,-279.684"/>
<polygon fill="black" stroke="black" points="59.3711,-280.843 59.7482,-270.255 52.8505,-278.297 59.3711,-280.843"/>
<text text-anchor="middle" x="60" y="-293.4" font-family="monospace" font-size="12.00">\&#39;</text>
</g>
<!-- QC -->
<g id="node4" class="node"><title>QC</title>
<ellipse fill="none" stroke="black" cx="70" cy="-136" rx="29" ry="29"/>
<text text-anchor="middle" x="70" y="-132.9" font-family="monospace" font-size="12.00">QC</text>
</g>
<!-- Q&#45;&gt;QC -->
<g id="edge4" class="edge"><title>Q&#45;&gt;QC</title>
<path fill="none" stroke="black" d="M70,-213.862C70,-202.092 70,-188.224 70,-175.53"/>
<polygon fill="black" stroke="black" points="73.5001,-175.216 70,-165.216 66.5001,-175.216 73.5001,-175.216"/>
<text text-anchor="middle" x="134" y="-186.4" font-family="monospace" font-size="12.00">&lt;FSAChar succeed&gt;</text>
</g>
<!-- QCQ -->
<g id="node5" class="node"><title>QCQ</title>
<ellipse fill="lightgrey" stroke="black" cx="70" cy="-29" rx="29" ry="29"/>
<text text-anchor="middle" x="70" y="-25.9" font-family="monospace" font-size="12.00">QCQ</text>
</g>
<!-- QC&#45;&gt;QCQ -->
<g id="edge5" class="edge"><title>QC&#45;&gt;QCQ</title>
<path fill="none" stroke="black" d="M70,-106.862C70,-95.0923 70,-81.2237 70,-68.5301"/>
<polygon fill="black" stroke="black" points="73.5001,-68.2157 70,-58.2157 66.5001,-68.2158 73.5001,-68.2157"/>
<text text-anchor="middle" x="78" y="-79.4" font-family="monospace" font-size="12.00">\&#39;</text>
</g>
</g>
</svg>
