<?xml version="1.0" encoding="UTF-8" standalone="no"?>
<!DOCTYPE svg PUBLIC "-//W3C//DTD SVG 1.1//EN"
 "http://www.w3.org/Graphics/SVG/1.1/DTD/svg11.dtd">
<!-- Generated by graphviz version 2.38.0 (20140413.2041)
 -->
<!-- Title: operator Pages: 1 -->
<svg width="476pt" height="814pt"
 viewBox="0.00 0.00 476.00 814.00" xmlns="http://www.w3.org/2000/svg" xmlns:xlink="http://www.w3.org/1999/xlink">
<g id="graph0" class="graph" transform="scale(1 1) rotate(0) translate(4 810)">
<title>operator</title>
<polygon fill="white" stroke="none" points="-4,4 -4,-810 472,-810 472,4 -4,4"/>
<!-- START -->
<g id="node1" class="node"><title>START</title>
<ellipse fill="none" stroke="black" cx="25" cy="-382" rx="25" ry="25"/>
<text text-anchor="middle" x="25" y="-378.9" font-family="monospace" font-size="12.00">START</text>
</g>
<!-- FINISH -->
<g id="node2" class="node"><title>FINISH</title>
<ellipse fill="lightgrey" stroke="black" cx="443" cy="-424" rx="25" ry="25"/>
<text text-anchor="middle" x="443" y="-420.9" font-family="monospace" font-size="12.00">FINISH</text>
</g>
<!-- START&#45;&gt;FINISH -->
<g id="edge13" class="edge"><title>START&#45;&gt;FINISH</title>
<path fill="none" stroke="black" d="M25.756,-407.139C26.0751,-458.834 31.0822,-580.014 68,-673 90.7485,-730.297 104.782,-752.052 162,-775 267.256,-817.214 352.609,-786.029 400,-683 434.211,-608.625 441.087,-511.032 442.148,-459.475"/>
<polygon fill="black" stroke="black" points="445.651,-459.245 442.293,-449.196 438.652,-459.146 445.651,-459.245"/>
<text text-anchor="middle" x="222.5" y="-796.4" font-family="monospace" font-size="12.00">[\[\]().,?:~;{}]</text>
</g>
<!-- SUB -->
<g id="node3" class="node"><title>SUB</title>
<ellipse fill="lightgrey" stroke="black" cx="222.5" cy="-745" rx="25" ry="25"/>
<text text-anchor="middle" x="222.5" y="-741.9" font-family="monospace" font-size="12.00">SUB</text>
</g>
<!-- START&#45;&gt;SUB -->
<g id="edge1" class="edge"><title>START&#45;&gt;SUB</title>
<path fill="none" stroke="black" d="M28.0299,-406.947C32.9912,-464.081 46.8905,-602.666 68,-644 92.507,-691.986 151.497,-720.619 188.799,-734.546"/>
<polygon fill="black" stroke="black" points="187.644,-737.851 198.239,-737.931 190.007,-731.261 187.644,-737.851"/>
<text text-anchor="middle" x="72" y="-659.4" font-family="monospace" font-size="12.00">&#45;</text>
</g>
<!-- ADD -->
<g id="node4" class="node"><title>ADD</title>
<ellipse fill="lightgrey" stroke="black" cx="222.5" cy="-682" rx="25" ry="25"/>
<text text-anchor="middle" x="222.5" y="-678.9" font-family="monospace" font-size="12.00">ADD</text>
</g>
<!-- START&#45;&gt;ADD -->
<g id="edge2" class="edge"><title>START&#45;&gt;ADD</title>
<path fill="none" stroke="black" d="M27.8873,-407.202C32.308,-460.771 44.7589,-583.855 68,-618 94.8379,-657.429 150.956,-672.621 187.391,-678.438"/>
<polygon fill="black" stroke="black" points="187.162,-681.941 197.558,-679.901 188.159,-675.012 187.162,-681.941"/>
<text text-anchor="middle" x="72" y="-630.4" font-family="monospace" font-size="12.00">+</text>
</g>
<!-- AMP -->
<g id="node5" class="node"><title>AMP</title>
<ellipse fill="lightgrey" stroke="black" cx="222.5" cy="-625" rx="25" ry="25"/>
<text text-anchor="middle" x="222.5" y="-621.9" font-family="monospace" font-size="12.00">AMP</text>
</g>
<!-- START&#45;&gt;AMP -->
<g id="edge3" class="edge"><title>START&#45;&gt;AMP</title>
<path fill="none" stroke="black" d="M27.474,-407.059C30.9843,-457.733 41.6035,-569.79 68,-596 99.2189,-626.999 152.509,-630.356 187.362,-628.656"/>
<polygon fill="black" stroke="black" points="187.792,-632.136 197.542,-627.991 187.335,-625.151 187.792,-632.136"/>
<text text-anchor="middle" x="72" y="-604.4" font-family="monospace" font-size="12.00">&amp;</text>
</g>
<!-- MULT -->
<g id="node6" class="node"><title>MULT</title>
<ellipse fill="lightgrey" stroke="black" cx="326" cy="-597" rx="25" ry="25"/>
<text text-anchor="middle" x="326" y="-593.9" font-family="monospace" font-size="12.00">MULT</text>
</g>
<!-- START&#45;&gt;MULT -->
<g id="edge4" class="edge"><title>START&#45;&gt;MULT</title>
<path fill="none" stroke="black" d="M32.4715,-406.122C41.5402,-435.514 60.7629,-484.847 94,-514 151.605,-564.526 242.248,-585.022 291.101,-592.747"/>
<polygon fill="black" stroke="black" points="290.743,-596.232 301.15,-594.247 291.777,-589.309 290.743,-596.232"/>
<text text-anchor="middle" x="119" y="-549.4" font-family="monospace" font-size="12.00">*</text>
</g>
<!-- LT -->
<g id="node7" class="node"><title>LT</title>
<ellipse fill="lightgrey" stroke="black" cx="119" cy="-480" rx="25" ry="25"/>
<text text-anchor="middle" x="119" y="-476.9" font-family="monospace" font-size="12.00">LT</text>
</g>
<!-- START&#45;&gt;LT -->
<g id="edge5" class="edge"><title>START&#45;&gt;LT</title>
<path fill="none" stroke="black" d="M42.8742,-399.975C57.2693,-415.309 78.129,-437.529 94.2171,-454.666"/>
<polygon fill="black" stroke="black" points="91.8366,-457.244 101.233,-462.139 96.9401,-452.453 91.8366,-457.244"/>
<text text-anchor="middle" x="72" y="-436.4" font-family="monospace" font-size="12.00">&lt;</text>
</g>
<!-- GT -->
<g id="node8" class="node"><title>GT</title>
<ellipse fill="lightgrey" stroke="black" cx="119" cy="-382" rx="25" ry="25"/>
<text text-anchor="middle" x="119" y="-378.9" font-family="monospace" font-size="12.00">GT</text>
</g>
<!-- START&#45;&gt;GT -->
<g id="edge6" class="edge"><title>START&#45;&gt;GT</title>
<path fill="none" stroke="black" d="M50.1719,-382C60.4195,-382 72.5485,-382 83.6959,-382"/>
<polygon fill="black" stroke="black" points="83.9896,-385.5 93.9895,-382 83.9895,-378.5 83.9896,-385.5"/>
<text text-anchor="middle" x="72" y="-385.4" font-family="monospace" font-size="12.00">&gt;</text>
</g>
<!-- EQ -->
<g id="node9" class="node"><title>EQ</title>
<ellipse fill="lightgrey" stroke="black" cx="222.5" cy="-318" rx="25" ry="25"/>
<text text-anchor="middle" x="222.5" y="-314.9" font-family="monospace" font-size="12.00">EQ</text>
</g>
<!-- START&#45;&gt;EQ -->
<g id="edge7" class="edge"><title>START&#45;&gt;EQ</title>
<path fill="none" stroke="black" d="M47.1763,-369.808C60.3169,-362.651 77.742,-353.886 94,-348 124.82,-336.842 161.354,-328.738 187.397,-323.787"/>
<polygon fill="black" stroke="black" points="188.322,-327.175 197.522,-321.92 187.053,-320.291 188.322,-327.175"/>
<text text-anchor="middle" x="72" y="-361.4" font-family="monospace" font-size="12.00">=</text>
</g>
<!-- OR -->
<g id="node10" class="node"><title>OR</title>
<ellipse fill="lightgrey" stroke="black" cx="326" cy="-246" rx="25" ry="25"/>
<text text-anchor="middle" x="326" y="-242.9" font-family="monospace" font-size="12.00">OR</text>
</g>
<!-- START&#45;&gt;OR -->
<g id="edge8" class="edge"><title>START&#45;&gt;OR</title>
<path fill="none" stroke="black" d="M41.6589,-363.07C54.48,-348.568 73.7498,-328.918 94,-316 121.278,-298.599 131.23,-300.007 162,-290 206.268,-275.603 258.342,-262.136 291.5,-253.985"/>
<polygon fill="black" stroke="black" points="292.681,-257.3 301.568,-251.531 291.023,-250.499 292.681,-257.3"/>
<text text-anchor="middle" x="119" y="-319.4" font-family="monospace" font-size="12.00">|</text>
</g>
<!-- NOT -->
<g id="node11" class="node"><title>NOT</title>
<ellipse fill="lightgrey" stroke="black" cx="222.5" cy="-222" rx="25" ry="25"/>
<text text-anchor="middle" x="222.5" y="-218.9" font-family="monospace" font-size="12.00">NOT</text>
</g>
<!-- START&#45;&gt;NOT -->
<g id="edge9" class="edge"><title>START&#45;&gt;NOT</title>
<path fill="none" stroke="black" d="M26.4981,-357.04C28.5314,-326.757 36.7662,-276.367 68,-249 100.829,-220.235 153.234,-217 187.509,-218.543"/>
<polygon fill="black" stroke="black" points="187.328,-222.038 197.522,-219.152 187.753,-215.051 187.328,-222.038"/>
<text text-anchor="middle" x="72" y="-252.4" font-family="monospace" font-size="12.00">!</text>
</g>
<!-- DIV -->
<g id="node12" class="node"><title>DIV</title>
<ellipse fill="lightgrey" stroke="black" cx="326" cy="-129" rx="25" ry="25"/>
<text text-anchor="middle" x="326" y="-125.9" font-family="monospace" font-size="12.00">DIV</text>
</g>
<!-- START&#45;&gt;DIV -->
<g id="edge10" class="edge"><title>START&#45;&gt;DIV</title>
<path fill="none" stroke="black" d="M27.2748,-356.99C30.805,-316.931 44.0873,-239.214 94,-203 154.684,-158.971 242.686,-140.392 290.659,-133.159"/>
<polygon fill="black" stroke="black" points="291.424,-136.585 300.828,-131.706 290.434,-129.656 291.424,-136.585"/>
<text text-anchor="middle" x="119" y="-206.4" font-family="monospace" font-size="12.00">/</text>
</g>
<!-- MOD -->
<g id="node13" class="node"><title>MOD</title>
<ellipse fill="lightgrey" stroke="black" cx="119" cy="-103" rx="25" ry="25"/>
<text text-anchor="middle" x="119" y="-99.9" font-family="monospace" font-size="12.00">MOD</text>
</g>
<!-- START&#45;&gt;MOD -->
<g id="edge11" class="edge"><title>START&#45;&gt;MOD</title>
<path fill="none" stroke="black" d="M25.6348,-356.761C26.0288,-312.435 31.5511,-218.872 68,-151 73.5357,-140.692 82.0794,-131.29 90.5476,-123.592"/>
<polygon fill="black" stroke="black" points="92.8966,-126.189 98.2148,-117.025 88.343,-120.872 92.8966,-126.189"/>
<text text-anchor="middle" x="72" y="-154.4" font-family="monospace" font-size="12.00">%</text>
</g>
<!-- XOR -->
<g id="node14" class="node"><title>XOR</title>
<ellipse fill="lightgrey" stroke="black" cx="119" cy="-25" rx="25" ry="25"/>
<text text-anchor="middle" x="119" y="-21.9" font-family="monospace" font-size="12.00">XOR</text>
</g>
<!-- START&#45;&gt;XOR -->
<g id="edge12" class="edge"><title>START&#45;&gt;XOR</title>
<path fill="none" stroke="black" d="M27.6704,-356.808C31.3085,-309.862 41.8258,-206.214 68,-123 75.5847,-98.8866 88.6901,-73.5138 99.5811,-54.6282"/>
<polygon fill="black" stroke="black" points="102.656,-56.3048 104.716,-45.9122 96.6243,-52.7517 102.656,-56.3048"/>
<text text-anchor="middle" x="72" y="-126.4" font-family="monospace" font-size="12.00">^</text>
</g>
<!-- SUB&#45;&gt;FINISH -->
<g id="edge14" class="edge"><title>SUB&#45;&gt;FINISH</title>
<path fill="none" stroke="black" d="M247.299,-740.706C287.381,-732.035 367.188,-708.244 400,-652 435.637,-590.913 442.14,-506.271 442.714,-459.187"/>
<polygon fill="black" stroke="black" points="446.214,-459.188 442.752,-449.175 439.214,-459.161 446.214,-459.188"/>
<text text-anchor="middle" x="326" y="-727.4" font-family="monospace" font-size="12.00">[&gt;&#45;=]</text>
</g>
<!-- ADD&#45;&gt;FINISH -->
<g id="edge15" class="edge"><title>ADD&#45;&gt;FINISH</title>
<path fill="none" stroke="black" d="M247.797,-682.366C287.502,-681.475 365.332,-673.16 400,-624 434.872,-574.55 441.921,-502.223 442.742,-459.447"/>
<polygon fill="black" stroke="black" points="446.243,-459.27 442.829,-449.24 439.243,-459.21 446.243,-459.27"/>
<text text-anchor="middle" x="326" y="-679.4" font-family="monospace" font-size="12.00">[+=]</text>
</g>
<!-- AMP&#45;&gt;FINISH -->
<g id="edge16" class="edge"><title>AMP&#45;&gt;FINISH</title>
<path fill="none" stroke="black" d="M247.179,-630.965C273.279,-636.44 316.18,-642.158 351,-631 376.486,-622.833 384.999,-618.163 400,-596 428.07,-554.528 437.423,-496.181 440.513,-459.234"/>
<polygon fill="black" stroke="black" points="444.026,-459.181 441.257,-448.955 437.044,-458.676 444.026,-459.181"/>
<text text-anchor="middle" x="326" y="-640.4" font-family="monospace" font-size="12.00">[&amp;=]</text>
</g>
<!-- MULT&#45;&gt;FINISH -->
<g id="edge17" class="edge"><title>MULT&#45;&gt;FINISH</title>
<path fill="none" stroke="black" d="M349.774,-589.04C365.92,-582.307 386.953,-571.151 400,-555 422.389,-527.284 432.947,-487.385 437.859,-458.914"/>
<polygon fill="black" stroke="black" points="441.324,-459.409 439.425,-448.986 434.41,-458.318 441.324,-459.409"/>
<text text-anchor="middle" x="384.5" y="-582.4" font-family="monospace" font-size="12.00">=</text>
</g>
<!-- LT&#45;&gt;FINISH -->
<g id="edge18" class="edge"><title>LT&#45;&gt;FINISH</title>
<path fill="none" stroke="black" d="M141.99,-489.989C183.84,-507.543 277.334,-539.737 351,-514 381.741,-503.26 407.107,-475.323 423.178,-453.398"/>
<polygon fill="black" stroke="black" points="426.171,-455.227 429.078,-445.039 420.452,-451.191 426.171,-455.227"/>
<text text-anchor="middle" x="326" y="-526.4" font-family="monospace" font-size="12.00">=</text>
</g>
<!-- LTLT -->
<g id="node15" class="node"><title>LTLT</title>
<ellipse fill="lightgrey" stroke="black" cx="326" cy="-480" rx="25" ry="25"/>
<text text-anchor="middle" x="326" y="-476.9" font-family="monospace" font-size="12.00">LTLT</text>
</g>
<!-- LT&#45;&gt;LTLT -->
<g id="edge19" class="edge"><title>LT&#45;&gt;LTLT</title>
<path fill="none" stroke="black" d="M144.321,-480C180.616,-480 249.108,-480 290.544,-480"/>
<polygon fill="black" stroke="black" points="290.71,-483.5 300.71,-480 290.71,-476.5 290.71,-483.5"/>
<text text-anchor="middle" x="222.5" y="-483.4" font-family="monospace" font-size="12.00">&lt;</text>
</g>
<!-- GT&#45;&gt;FINISH -->
<g id="edge20" class="edge"><title>GT&#45;&gt;FINISH</title>
<path fill="none" stroke="black" d="M142.934,-389.321C149.076,-391.07 155.748,-392.781 162,-394 249.542,-411.065 354.508,-419.043 407.608,-422.219"/>
<polygon fill="black" stroke="black" points="407.636,-425.727 417.821,-422.809 408.04,-418.738 407.636,-425.727"/>
<text text-anchor="middle" x="326" y="-420.4" font-family="monospace" font-size="12.00">=</text>
</g>
<!-- GTGT -->
<g id="node16" class="node"><title>GTGT</title>
<ellipse fill="lightgrey" stroke="black" cx="326" cy="-363" rx="25" ry="25"/>
<text text-anchor="middle" x="326" y="-359.9" font-family="monospace" font-size="12.00">GTGT</text>
</g>
<!-- GT&#45;&gt;GTGT -->
<g id="edge21" class="edge"><title>GT&#45;&gt;GTGT</title>
<path fill="none" stroke="black" d="M143.917,-379.783C180.158,-376.424 249.155,-370.03 290.725,-366.177"/>
<polygon fill="black" stroke="black" points="291.284,-369.64 300.918,-365.232 290.638,-362.67 291.284,-369.64"/>
<text text-anchor="middle" x="222.5" y="-380.4" font-family="monospace" font-size="12.00">&gt;</text>
</g>
<!-- EQ&#45;&gt;FINISH -->
<g id="edge22" class="edge"><title>EQ&#45;&gt;FINISH</title>
<path fill="none" stroke="black" d="M246.861,-311.79C273.433,-306.011 317.477,-300.41 351,-316 384.808,-331.723 410.561,-366.876 425.899,-392.827"/>
<polygon fill="black" stroke="black" points="422.893,-394.621 430.887,-401.575 428.975,-391.154 422.893,-394.621"/>
<text text-anchor="middle" x="326" y="-319.4" font-family="monospace" font-size="12.00">=</text>
</g>
<!-- OR&#45;&gt;FINISH -->
<g id="edge23" class="edge"><title>OR&#45;&gt;FINISH</title>
<path fill="none" stroke="black" d="M350.529,-251.468C366.614,-256.372 387.251,-265.148 400,-280 426.288,-310.624 436.14,-356.945 439.822,-388.733"/>
<polygon fill="black" stroke="black" points="436.363,-389.315 440.849,-398.913 443.327,-388.612 436.363,-389.315"/>
<text text-anchor="middle" x="384.5" y="-283.4" font-family="monospace" font-size="12.00">[|=]</text>
</g>
<!-- NOT&#45;&gt;FINISH -->
<g id="edge24" class="edge"><title>NOT&#45;&gt;FINISH</title>
<path fill="none" stroke="black" d="M245.186,-210.66C271.333,-198.631 316.109,-183.355 351,-199 421.976,-230.825 437.909,-333.75 441.276,-388.685"/>
<polygon fill="black" stroke="black" points="437.78,-388.866 441.781,-398.676 444.771,-388.512 437.78,-388.866"/>
<text text-anchor="middle" x="326" y="-202.4" font-family="monospace" font-size="12.00">=</text>
</g>
<!-- DIV&#45;&gt;FINISH -->
<g id="edge25" class="edge"><title>DIV&#45;&gt;FINISH</title>
<path fill="none" stroke="black" d="M350.763,-133.899C367.175,-138.557 388.113,-147.274 400,-163 426.422,-197.957 436.795,-325.98 440.361,-388.782"/>
<polygon fill="black" stroke="black" points="436.878,-389.2 440.913,-398.996 443.868,-388.822 436.878,-389.2"/>
<text text-anchor="middle" x="384.5" y="-166.4" font-family="monospace" font-size="12.00">=</text>
</g>
<!-- MOD&#45;&gt;FINISH -->
<g id="edge26" class="edge"><title>MOD&#45;&gt;FINISH</title>
<path fill="none" stroke="black" d="M142.531,-93.9105C185.294,-78.1399 280.266,-50.2838 351,-82 380.873,-95.3946 386.158,-107.332 400,-137 420.614,-181.184 434.073,-322.734 439.407,-389.073"/>
<polygon fill="black" stroke="black" points="435.918,-389.354 440.193,-399.048 442.897,-388.803 435.918,-389.354"/>
<text text-anchor="middle" x="326" y="-85.4" font-family="monospace" font-size="12.00">=</text>
</g>
<!-- XOR&#45;&gt;FINISH -->
<g id="edge27" class="edge"><title>XOR&#45;&gt;FINISH</title>
<path fill="none" stroke="black" d="M143.668,-20.8498C201.529,-12.2454 349.124,-0.0025173 400,-88 429.167,-138.448 438.347,-312.266 441.005,-388.12"/>
<polygon fill="black" stroke="black" points="437.522,-388.696 441.351,-398.575 444.518,-388.464 437.522,-388.696"/>
<text text-anchor="middle" x="326" y="-43.4" font-family="monospace" font-size="12.00">=</text>
</g>
<!-- LTLT&#45;&gt;FINISH -->
<g id="edge28" class="edge"><title>LTLT&#45;&gt;FINISH</title>
<path fill="none" stroke="black" d="M348.901,-469.335C366.487,-460.772 391.396,-448.642 411.024,-439.084"/>
<polygon fill="black" stroke="black" points="412.722,-442.15 420.18,-434.625 409.657,-435.857 412.722,-442.15"/>
<text text-anchor="middle" x="384.5" y="-461.4" font-family="monospace" font-size="12.00">=</text>
</g>
<!-- GTGT&#45;&gt;FINISH -->
<g id="edge29" class="edge"><title>GTGT&#45;&gt;FINISH</title>
<path fill="none" stroke="black" d="M349.43,-372.502C364.073,-378.935 383.469,-387.892 400,-397 404.328,-399.384 408.81,-402.046 413.164,-404.742"/>
<polygon fill="black" stroke="black" points="411.513,-407.84 421.83,-410.249 415.267,-401.932 411.513,-407.84"/>
<text text-anchor="middle" x="384.5" y="-400.4" font-family="monospace" font-size="12.00">=</text>
</g>
</g>
</svg>
