<?xml version="1.0" encoding="UTF-8" standalone="no"?>
<!DOCTYPE svg PUBLIC "-//W3C//DTD SVG 1.1//EN"
 "http://www.w3.org/Graphics/SVG/1.1/DTD/svg11.dtd">
<!-- Generated by graphviz version 2.38.0 (20140413.2041)
 -->
<!-- Title: string Pages: 1 -->
<svg width="233pt" height="327pt"
 viewBox="0.00 0.00 233.00 327.00" xmlns="http://www.w3.org/2000/svg" xmlns:xlink="http://www.w3.org/1999/xlink">
<g id="graph0" class="graph" transform="scale(1 1) rotate(0) translate(4 323)">
<title>string</title>
<polygon fill="white" stroke="none" points="-4,4 -4,-323 229,-323 229,4 -4,4"/>
<!-- START -->
<g id="node1" class="node"><title>START</title>
<ellipse fill="none" stroke="black" cx="64.5" cy="-297.5" rx="21.5" ry="21.5"/>
<text text-anchor="middle" x="64.5" y="-294.4" font-family="monospace" font-size="12.00">START</text>
</g>
<!-- L -->
<g id="node2" class="node"><title>L</title>
<ellipse fill="none" stroke="black" cx="21.5" cy="-205.5" rx="21.5" ry="21.5"/>
<text text-anchor="middle" x="21.5" y="-202.4" font-family="monospace" font-size="12.00">L</text>
</g>
<!-- START&#45;&gt;L -->
<g id="edge1" class="edge"><title>START&#45;&gt;L</title>
<path fill="none" stroke="black" d="M55.5904,-277.852C49.5942,-265.302 41.5808,-248.53 34.8299,-234.4"/>
<polygon fill="black" stroke="black" points="37.8673,-232.638 30.3982,-225.124 31.5512,-235.656 37.8673,-232.638"/>
<text text-anchor="middle" x="50.5" y="-248.4" font-family="monospace" font-size="12.00">L</text>
</g>
<!-- Q -->
<g id="node3" class="node"><title>Q</title>
<ellipse fill="none" stroke="black" cx="57.5" cy="-113.5" rx="21.5" ry="21.5"/>
<text text-anchor="middle" x="57.5" y="-110.4" font-family="monospace" font-size="12.00">Q</text>
</g>
<!-- START&#45;&gt;Q -->
<g id="edge2" class="edge"><title>START&#45;&gt;Q</title>
<path fill="none" stroke="black" d="M64.9621,-275.554C65.4069,-247.579 65.6167,-196.491 62.5,-153 62.3145,-150.412 62.0717,-147.731 61.7931,-145.045"/>
<polygon fill="black" stroke="black" points="65.2361,-144.356 60.586,-134.836 58.2845,-145.178 65.2361,-144.356"/>
<text text-anchor="middle" x="73.5" y="-202.4" font-family="monospace" font-size="12.00">\&quot;</text>
</g>
<!-- L&#45;&gt;Q -->
<g id="edge3" class="edge"><title>L&#45;&gt;Q</title>
<path fill="none" stroke="black" d="M29.3115,-184.971C34.2038,-172.741 40.5933,-156.767 46.052,-143.12"/>
<polygon fill="black" stroke="black" points="49.3632,-144.266 49.8275,-133.681 42.8638,-141.666 49.3632,-144.266"/>
<text text-anchor="middle" x="50.5" y="-156.4" font-family="monospace" font-size="12.00">\&quot;</text>
</g>
<!-- Q&#45;&gt;Q -->
<g id="edge4" class="edge"><title>Q&#45;&gt;Q</title>
<path fill="none" stroke="black" d="M77.4176,-121.822C87.7165,-123.102 97,-120.328 97,-113.5 97,-109.126 93.19,-106.415 87.7439,-105.369"/>
<polygon fill="black" stroke="black" points="87.4804,-101.863 77.4176,-105.178 87.3513,-108.862 87.4804,-101.863"/>
<text text-anchor="middle" x="161" y="-110.4" font-family="monospace" font-size="12.00">&lt;FSAChar succeed&gt;</text>
</g>
<!-- QQ -->
<g id="node4" class="node"><title>QQ</title>
<ellipse fill="lightgrey" stroke="black" cx="57.5" cy="-21.5" rx="21.5" ry="21.5"/>
<text text-anchor="middle" x="57.5" y="-18.4" font-family="monospace" font-size="12.00">QQ</text>
</g>
<!-- Q&#45;&gt;QQ -->
<g id="edge5" class="edge"><title>Q&#45;&gt;QQ</title>
<path fill="none" stroke="black" d="M57.5,-91.626C57.5,-80.2668 57.5,-65.9958 57.5,-53.3745"/>
<polygon fill="black" stroke="black" points="61.0001,-53.2608 57.5,-43.2608 54.0001,-53.2609 61.0001,-53.2608"/>
<text text-anchor="middle" x="65.5" y="-64.4" font-family="monospace" font-size="12.00">\&quot;</text>
</g>
</g>
</svg>
